# Blender v2.80 (sub 75) OBJ File: 'plane.blend'
# www.blender.org
mtllib plane_sawtooth.mtl
o plane_sawtooth
v -2.000000 0.000000 1.000000
v 2.000000 0.000000 1.000000
v -2.000000 0.000000 -1.000000
v 2.000000 0.000000 -1.000000
v -2.000000 0.000000 0.000000
v 0.000000 0.000000 1.000000
v 2.000000 0.000000 0.000000
v 0.000000 0.000000 -1.000000
v 0.000000 0.000000 0.000000
v -2.000000 0.000000 0.500000
v 1.000000 0.000000 1.000000
v 2.000000 0.000000 -0.500000
v -1.000000 0.000000 -1.000000
v -2.000000 0.000000 -0.500000
v -1.000000 0.000000 1.000000
v 2.000000 0.000000 0.500000
v 1.000000 0.000000 -1.000000
v 0.000000 0.000000 -0.500000
v 0.000000 0.000000 0.500000
v -1.000000 0.000000 0.000000
v 1.000000 0.000000 0.000000
v 1.000000 0.000000 -0.500000
v -1.000000 0.000000 -0.500000
v -1.000000 0.000000 0.500000
v 1.000000 0.000000 0.500000
vt 0.500000 0.000000
vt 0.750000 0.250000
vt 0.500000 0.250000
vt 0.500000 0.500000
vt 0.750000 0.750000
vt 0.500000 0.750000
vt 0.000000 0.500000
vt 0.250000 0.750000
vt 0.000000 0.750000
vt 0.000000 0.000000
vt 0.250000 0.250000
vt 0.000000 0.250000
vt 0.750000 0.000000
vt 0.750000 0.500000
vt 0.250000 0.500000
vt 0.250000 0.000000
vt 0.500000 1.000000
vt 1.000000 0.750000
vt 1.000000 1.000000
vt 1.000000 0.500000
vt 1.000000 0.250000
vt 1.000000 0.000000
vt 0.250000 1.000000
vt 0.000000 1.000000
vt 0.750000 1.000000
vn 0.0000 1.0000 0.0000
usemtl Material.001
s off
f 7/1/1 22/2/1 21/3/1
f 9/4/1 23/5/1 20/6/1
f 6/7/1 24/8/1 15/9/1
f 2/10/1 25/11/1 11/12/1
f 7/1/1 12/13/1 22/2/1
f 9/4/1 18/14/1 23/5/1
f 6/7/1 19/15/1 24/8/1
f 2/10/1 16/16/1 25/11/1
f 25/11/1 21/3/1 9/4/1
f 25/11/1 16/16/1 21/3/1
f 16/16/1 7/1/1 21/3/1
f 24/8/1 20/6/1 5/17/1
f 24/8/1 19/15/1 20/6/1
f 19/15/1 9/4/1 20/6/1
f 23/5/1 13/18/1 3/19/1
f 23/5/1 18/14/1 13/18/1
f 18/14/1 8/20/1 13/18/1
f 22/2/1 17/21/1 8/20/1
f 22/2/1 12/13/1 17/21/1
f 12/13/1 4/22/1 17/21/1
f 11/12/1 19/15/1 6/7/1
f 11/12/1 25/11/1 19/15/1
f 25/11/1 9/4/1 19/15/1
f 15/9/1 10/23/1 1/24/1
f 15/9/1 24/8/1 10/23/1
f 24/8/1 5/17/1 10/23/1
f 20/6/1 14/25/1 5/17/1
f 20/6/1 23/5/1 14/25/1
f 23/5/1 3/19/1 14/25/1
f 21/3/1 18/14/1 9/4/1
f 21/3/1 22/2/1 18/14/1
f 22/2/1 8/20/1 18/14/1
