# Blender v2.80 (sub 75) OBJ File: ''
# www.blender.org
mtllib thin_box.mtl
o thin_box
v -1.000000 -0.050000 2.000000
v -1.000000 0.050000 2.000000
v -1.000000 -0.050000 -2.000000
v -1.000000 0.050000 -2.000000
v 1.000000 -0.050000 2.000000
v 1.000000 0.050000 2.000000
v 1.000000 -0.050000 -2.000000
v 1.000000 0.050000 -2.000000
v -1.000000 -0.050000 0.000000
v -1.000000 0.000000 2.000000
v -1.000000 0.050000 0.000000
v -1.000000 0.000000 -2.000000
v 0.000000 -0.050000 -2.000000
v 0.000000 0.050000 -2.000000
v 1.000000 0.000000 -2.000000
v 1.000000 -0.050000 0.000000
v 1.000000 0.050000 0.000000
v 1.000000 0.000000 2.000000
v 0.000000 -0.050000 2.000000
v 0.000000 0.050000 2.000000
v -1.000000 0.000000 0.000000
v 0.000000 0.000000 -2.000000
v 1.000000 0.000000 0.000000
v 0.000000 0.000000 2.000000
v 0.000000 -0.050000 0.000000
v 0.000000 0.050000 0.000000
vt 0.333333 0.666667
vt 0.500000 0.500000
vt 0.500000 0.666667
vt 0.000000 0.666667
vt 0.166667 0.500000
vt 0.166667 0.666667
vt 0.000000 0.333333
vt 0.166667 0.166667
vt 0.166667 0.333333
vt 0.333333 0.000000
vt 0.500000 0.166667
vt 0.333333 0.166667
vt 0.666667 0.000000
vt 0.833333 0.166667
vt 0.666667 0.166667
vt 0.333333 1.000000
vt 0.166667 0.833333
vt 0.333333 0.833333
vt 0.333333 0.500000
vt 0.000000 0.500000
vt 0.000000 0.166667
vt 0.500000 0.000000
vt 0.833333 0.000000
vt 0.166667 1.000000
vt 0.000000 0.833333
vt 0.000000 0.666667
vt 0.000000 1.000000
vt 1.000000 0.166667
vt 1.000000 0.333333
vt 1.000000 0.000000
vt 0.666667 0.166667
vt 0.666667 0.333333
vt 0.666667 0.000000
vt 0.166667 0.000000
vt 0.333333 0.000000
vt 0.000000 0.000000
vt 0.333333 0.333333
vt 0.500000 0.333333
vt 0.666667 0.333333
vt 0.333333 0.333333
vt 0.166667 0.666667
vt 0.333333 0.666667
vt 0.833333 0.333333
vt 0.500000 0.333333
vt 0.333333 0.333333
vt 0.333333 0.166667
vt 0.333333 0.500000
vt 0.333333 0.666667
vt 0.666667 0.500000
vt 0.666667 0.666667
vn -1.0000 0.0000 0.0000
vn 0.0000 0.0000 -1.0000
vn 1.0000 0.0000 0.0000
vn 0.0000 0.0000 1.0000
vn 0.0000 -1.0000 0.0000
vn 0.0000 1.0000 0.0000
usemtl Material.001
s off
f 2/1/1 21/2/1 10/3/1
f 4/4/2 22/5/2 12/6/2
f 8/7/3 23/8/3 15/9/3
f 6/10/4 24/11/4 18/12/4
f 7/13/5 25/14/5 13/15/5
f 4/16/6 26/17/6 14/18/6
f 2/1/1 11/19/1 21/2/1
f 4/4/2 14/20/2 22/5/2
f 8/7/3 17/21/3 23/8/3
f 6/10/4 20/22/4 24/11/4
f 7/13/5 16/23/5 25/14/5
f 4/16/6 11/24/6 26/17/6
f 26/17/6 20/25/6 6/26/6
f 26/17/6 11/24/6 20/25/6
f 11/24/6 2/27/6 20/25/6
f 25/14/5 19/28/5 1/29/5
f 25/14/5 16/23/5 19/28/5
f 16/23/5 5/30/5 19/28/5
f 24/11/4 10/31/4 1/32/4
f 24/11/4 20/22/4 10/31/4
f 20/22/4 2/33/4 10/31/4
f 23/8/3 18/34/3 5/35/3
f 23/8/3 17/21/3 18/34/3
f 17/21/3 6/36/3 18/34/3
f 22/5/2 15/9/2 7/37/2
f 22/5/2 14/20/2 15/9/2
f 14/20/2 8/7/2 15/9/2
f 21/2/1 12/38/1 3/39/1
f 21/2/1 11/19/1 12/38/1
f 11/19/1 4/40/1 12/38/1
f 14/18/6 17/41/6 8/42/6
f 14/18/6 26/17/6 17/41/6
f 26/17/6 6/26/6 17/41/6
f 13/15/5 9/43/5 3/39/5
f 13/15/5 25/14/5 9/43/5
f 25/14/5 1/29/5 9/43/5
f 18/12/4 19/44/4 5/45/4
f 18/12/4 24/11/4 19/44/4
f 24/11/4 1/32/4 19/44/4
f 15/9/3 16/46/3 7/37/3
f 15/9/3 23/8/3 16/46/3
f 23/8/3 5/35/3 16/46/3
f 12/6/2 13/47/2 3/48/2
f 12/6/2 22/5/2 13/47/2
f 22/5/2 7/37/2 13/47/2
f 10/3/1 9/49/1 1/50/1
f 10/3/1 21/2/1 9/49/1
f 21/2/1 3/39/1 9/49/1
